<svg
    xmlns="http://www.w3.org/2000/svg"
    viewBox="0 0 249 157"
    id="vector">
    <defs>
        <clipPath id="clip_group_3">
            <path d="M 238.002 0 C 240.906 0.041 243.681 1.214 245.735 3.267 C 247.788 5.321 248.961 8.096 249.002 11 L 249.002 146 C 248.961 148.904 247.788 151.679 245.735 153.733 C 243.681 155.786 240.906 156.959 238.002 157 L 11.002 157 C 8.098 156.959 5.323 155.786 3.269 153.733 C 1.216 151.679 0.043 148.904 0.002 146 L 0.002 11 C 0.043 8.096 1.216 5.321 3.269 3.267 C 5.323 1.214 8.098 0.041 11.002 0 Z"/>
        </clipPath>
    </defs>
    <g id="group_6">
        <g id="group_5">
            <path
                id="path_1"
                d="M 238 0 C 240.904 0.041 243.679 1.214 245.733 3.267 C 247.786 5.321 248.959 8.096 249 11 L 249 146 C 248.959 148.904 247.786 151.679 245.733 153.733 C 243.679 155.786 240.904 156.959 238 157 L 11 157 C 8.096 156.959 5.321 155.786 3.267 153.733 C 1.214 151.679 0.041 148.904 0 146 L 0 11 C 0.041 8.096 1.214 5.321 3.267 3.267 C 5.321 1.214 8.096 0.041 11 0 Z"
                fill="#000000"
                stroke-width="1"/>
            <g id="group_4">
                <path
                    id="path_2"
                    d="M 238.002 0 C 240.906 0.041 243.681 1.214 245.735 3.267 C 247.788 5.321 248.961 8.096 249.002 11 L 249.002 146 C 248.961 148.904 247.788 151.679 245.735 153.733 C 243.681 155.786 240.906 156.959 238.002 157 L 11.002 157 C 8.098 156.959 5.323 155.786 3.269 153.733 C 1.216 151.679 0.043 148.904 0.002 146 L 0.002 11 C 0.043 8.096 1.216 5.321 3.269 3.267 C 5.323 1.214 8.098 0.041 11.002 0 Z"
                    fill="#fcc2ce"
                    stroke-width="1"/>
                <g id="wrapper">
                    <g
                        id="group_3"
                        clip-path="url(#clip_group_3)">
                        <path
                            id="path_3"
                            d="M -28 -218 C -27.75 -218.154 -27.25 -218.848 -27 -219 C 3.779 -237.656 92.552 -248.054 221 -123 C 291.223 41.586 210.779 100.344 180 119 C 179.75 119.152 179.252 119.85 179 120 L 125 153 L 70 186 L 46 201 L -105 60 L -161 -137 L -89 -181 L -82 -185 L -28 -218 Z"
                            fill="#3443564a"
                            stroke-width="1"/>
                        <path
                            id="path_4"
                            d="M -50 -64.001 C -49.795 -64.127 -49.206 -64.877 -49 -65.001 C -23.692 -80.276 62.157 -110.274 162 -2.001 C 212.342 136.147 145.308 197.724 120 212.999 C 119.794 213.122 119.207 213.876 119 213.999 L 74 240.999 L 30 267.999 L 10 279.999 L -114 163.999 L -160 1.999 L -101 -34.001 L -95 -37.001 L -50 -64.001 Z"
                            fill="#000000"
                            stroke-width="1"/>
                    </g>
                </g>
            </g>
        </g>
    </g>
    <g id="group_18">
        <g id="group_16">
            <g id="group_8">
                <g id="group_7"/>
            </g>
            <g id="group_10">
                <g id="group_9"/>
            </g>
            <g id="group_12">
                <g id="group_11"/>
            </g>
            <g id="group_14">
                <g id="group_13"/>
            </g>
            <g id="group_15">
                <path
                    id="path_5"
                    d="M 84.417 103.108 C 84.121 103.102 83.825 103.08 83.531 103.044 C 83.314 103.021 83.126 103.001 83 103.001 L 82.992 103.001 C 82.628 103.001 82.492 102.758 82.333 102.477 C 82.245 102.303 82.132 102.142 81.998 102 C 81.858 101.872 81.701 101.762 81.532 101.675 C 81.247 101.513 81.001 101.375 80.998 101 C 80.998 100.744 81.267 100.565 81.53 100.392 C 81.709 100.292 81.868 100.159 81.998 100 C 82.237 99.584 82.582 99.239 82.998 99 C 83.129 98.938 83.271 98.904 83.415 98.9 C 83.544 98.905 83.671 98.924 83.796 98.956 C 83.859 98.969 83.925 98.983 83.996 98.997 C 84.036 99.004 84.077 99.008 84.118 99.008 C 84.23 99.004 84.342 98.982 84.447 98.943 L 84.467 98.936 C 84.553 98.904 84.643 98.885 84.734 98.881 C 84.784 98.882 84.833 98.893 84.879 98.913 C 84.924 98.933 84.965 98.963 84.999 99 C 85.112 99.103 85.231 99.198 85.357 99.285 C 85.643 99.494 85.94 99.709 85.999 99.999 C 86.058 100.289 85.665 100.899 85.35 101.399 C 85.22 101.591 85.102 101.791 84.999 101.999 C 84.974 102.084 84.965 102.174 84.975 102.263 C 84.985 102.351 85.012 102.437 85.055 102.515 C 85.13 102.705 85.195 102.869 84.999 103 C 84.818 103.088 84.617 103.125 84.417 103.108 Z M 75.676 103.108 C 75.583 103.104 75.491 103.088 75.402 103.062 C 75.272 103.025 75.137 103.004 75.002 103.001 L 74.992 103.001 C 74.628 103.001 74.492 102.758 74.333 102.477 C 74.245 102.303 74.132 102.142 73.998 102 C 73.858 101.872 73.701 101.762 73.532 101.675 C 73.247 101.513 73.001 101.375 72.998 101 C 72.993 100.867 72.973 100.736 72.937 100.608 C 72.897 100.509 72.882 100.402 72.893 100.296 C 72.903 100.191 72.939 100.089 72.998 100 C 73.237 99.584 73.582 99.239 73.998 99 C 74.255 98.921 74.524 98.887 74.792 98.9 C 75.196 98.902 75.599 98.935 75.997 99 C 76.037 99.007 76.078 99.011 76.119 99.011 C 76.231 99.007 76.343 98.985 76.448 98.946 L 76.468 98.939 C 76.553 98.906 76.643 98.886 76.734 98.881 C 76.784 98.882 76.833 98.893 76.879 98.913 C 76.924 98.933 76.965 98.963 76.999 99 C 77.177 99.174 77.123 99.337 77.06 99.525 C 76.996 99.675 76.975 99.839 76.999 100 C 77.125 100.661 77.125 101.339 76.999 102 C 76.761 102.417 76.416 102.762 75.999 103 C 75.905 103.068 75.792 103.106 75.676 103.108 Z M 67.676 103.108 C 67.583 103.104 67.492 103.088 67.403 103.062 C 67.273 103.025 67.138 103.004 67.003 103.001 L 66.992 103.001 C 66.244 102.87 65.551 102.522 64.999 102.001 C 64.754 101.76 64.799 101.658 64.881 101.488 C 64.96 101.338 65.001 101.171 64.999 101.001 C 64.994 100.868 64.974 100.736 64.938 100.608 C 64.898 100.509 64.883 100.403 64.894 100.297 C 64.904 100.191 64.94 100.09 64.999 100.001 C 65.234 99.582 65.58 99.236 65.999 99.001 C 66.13 98.939 66.272 98.905 66.416 98.901 C 66.545 98.906 66.673 98.925 66.798 98.957 C 66.859 98.97 66.925 98.984 66.998 98.998 C 67.038 99.005 67.079 99.009 67.12 99.009 C 67.232 99.005 67.344 98.983 67.449 98.944 L 67.469 98.937 C 67.554 98.905 67.643 98.886 67.734 98.881 C 67.784 98.882 67.833 98.893 67.879 98.913 C 67.924 98.933 67.965 98.963 67.999 99 C 68.112 99.104 68.231 99.199 68.357 99.286 C 68.643 99.495 68.939 99.71 69 100 C 69.125 100.661 69.125 101.339 69 102 C 68.767 102.42 68.42 102.767 68 103 C 67.906 103.068 67.793 103.106 67.676 103.108 Z M 59.676 103.108 C 59.583 103.104 59.491 103.088 59.402 103.062 C 59.272 103.025 59.137 103.004 59.002 103.001 L 58.992 103.001 C 58.244 102.87 57.551 102.522 56.999 102.001 C 56.859 101.873 56.702 101.763 56.533 101.676 C 56.248 101.514 56.002 101.376 55.999 101.001 C 55.999 100.745 56.268 100.566 56.531 100.393 C 56.71 100.293 56.869 100.16 56.998 100.001 C 57.233 99.582 57.579 99.236 57.998 99.001 C 58.129 98.939 58.271 98.905 58.415 98.901 C 58.544 98.906 58.672 98.925 58.797 98.957 C 58.858 98.97 58.924 98.984 58.997 98.998 C 59.038 99.006 59.079 99.011 59.121 99.011 C 59.233 99.007 59.345 98.985 59.45 98.946 L 59.471 98.939 C 59.555 98.906 59.645 98.887 59.735 98.881 C 59.785 98.882 59.835 98.892 59.88 98.913 C 59.926 98.933 59.967 98.963 60.001 99 C 60.113 99.103 60.233 99.198 60.358 99.285 C 60.645 99.494 60.94 99.71 61.001 100 C 61.126 100.661 61.126 101.339 61.001 102 C 60.763 102.416 60.417 102.762 60.001 103 C 59.907 103.068 59.794 103.106 59.677 103.108 Z M 122.676 103.108 C 122.583 103.104 122.491 103.088 122.402 103.062 C 122.272 103.025 122.137 103.004 122.002 103.001 L 121.996 103.001 C 121.248 102.87 120.555 102.522 120.003 102.001 C 119.757 101.76 119.803 101.658 119.885 101.488 C 119.964 101.338 120.005 101.171 120.003 101.002 C 119.998 100.869 119.978 100.737 119.942 100.609 C 119.902 100.51 119.887 100.403 119.897 100.297 C 119.908 100.192 119.944 100.09 120.003 100.001 C 120.242 99.585 120.587 99.24 121.003 99.001 C 121.134 98.939 121.276 98.905 121.42 98.901 C 121.548 98.907 121.674 98.926 121.798 98.959 C 121.861 98.972 121.927 98.986 121.998 99 C 122.038 99.007 122.079 99.011 122.12 99.011 C 122.232 99.007 122.344 98.985 122.449 98.946 L 122.469 98.939 C 122.553 98.906 122.642 98.886 122.733 98.88 C 122.783 98.881 122.832 98.892 122.878 98.912 C 122.923 98.932 122.964 98.962 122.998 98.999 C 123.111 99.103 123.23 99.198 123.356 99.285 C 123.642 99.494 123.939 99.71 123.998 99.999 C 124.123 100.66 124.123 101.338 123.998 101.999 C 123.76 102.415 123.414 102.761 122.998 102.999 C 122.904 103.067 122.792 103.106 122.676 103.108 Z M 106.417 103.108 C 106.121 103.102 105.825 103.08 105.531 103.044 C 105.314 103.021 105.126 103.001 105 103.001 L 104.994 103.001 C 104.63 103.001 104.494 102.758 104.335 102.478 C 104.247 102.304 104.134 102.143 104 102.002 C 103.86 101.874 103.703 101.764 103.534 101.677 C 103.249 101.514 103.003 101.377 103 101.002 C 102.995 100.869 102.975 100.737 102.939 100.609 C 102.899 100.51 102.884 100.403 102.894 100.297 C 102.905 100.192 102.941 100.09 103 100.001 C 103.239 99.585 103.584 99.24 104 99.001 C 104.257 98.922 104.526 98.888 104.794 98.901 C 105.198 98.903 105.601 98.936 106 99.001 C 106.04 99.008 106.081 99.012 106.122 99.012 C 106.234 99.008 106.346 98.986 106.451 98.947 L 106.471 98.94 C 106.555 98.907 106.644 98.887 106.735 98.881 C 106.785 98.882 106.834 98.893 106.88 98.913 C 106.925 98.933 106.966 98.963 107 99 C 107.178 99.174 107.124 99.337 107.061 99.526 C 106.997 99.675 106.976 99.839 107 100 C 107.125 100.661 107.125 101.339 107 102 C 106.975 102.085 106.967 102.175 106.976 102.263 C 106.986 102.352 107.013 102.437 107.056 102.515 C 107.131 102.705 107.196 102.869 107 103 C 106.819 103.088 106.618 103.125 106.417 103.108 Z M 97.676 103.108 C 97.583 103.104 97.491 103.088 97.402 103.062 C 97.272 103.025 97.137 103.004 97.002 103.001 L 96.993 103.001 C 96.629 103.001 96.493 102.758 96.334 102.478 C 96.246 102.304 96.133 102.143 95.999 102.002 C 95.859 101.874 95.702 101.764 95.533 101.677 C 95.248 101.514 95.002 101.377 94.999 101.002 C 94.994 100.869 94.974 100.737 94.938 100.609 C 94.898 100.51 94.883 100.403 94.894 100.297 C 94.904 100.192 94.94 100.09 94.999 100.001 C 95.238 99.585 95.583 99.24 95.999 99.001 C 96.256 98.922 96.525 98.888 96.793 98.901 C 97.197 98.903 97.6 98.936 97.998 99.001 C 98.038 99.008 98.079 99.012 98.12 99.012 C 98.233 99.008 98.344 98.986 98.45 98.946 L 98.47 98.939 C 98.554 98.906 98.644 98.886 98.734 98.881 C 98.784 98.882 98.833 98.893 98.879 98.913 C 98.924 98.933 98.965 98.963 98.999 99 C 99.177 99.174 99.123 99.337 99.06 99.526 C 98.996 99.675 98.975 99.839 98.999 100 C 99.124 100.661 99.124 101.339 98.999 102 C 98.761 102.416 98.415 102.762 97.999 103 C 97.905 103.068 97.792 103.106 97.676 103.108 Z M 114.676 103.108 C 114.583 103.104 114.49 103.088 114.401 103.062 C 114.271 103.025 114.136 103.004 114.001 103.001 L 113.996 103.001 C 113.247 102.871 112.553 102.523 112.001 102.001 C 111.861 101.873 111.704 101.763 111.535 101.676 C 111.25 101.513 111.003 101.376 111.001 101.001 C 111.001 100.744 111.271 100.565 111.535 100.391 C 111.714 100.291 111.872 100.158 112.001 100 C 112.236 99.581 112.582 99.235 113.001 99 C 113.132 98.938 113.274 98.904 113.419 98.9 C 113.55 98.906 113.681 98.926 113.808 98.96 C 113.868 98.973 113.932 98.986 114.003 99 C 114.043 99.007 114.083 99.011 114.124 99.011 C 114.236 99.007 114.348 98.985 114.453 98.946 L 114.472 98.94 C 114.557 98.907 114.646 98.887 114.737 98.881 C 114.787 98.882 114.836 98.893 114.882 98.913 C 114.927 98.933 114.968 98.963 115.002 99 C 115.115 99.104 115.234 99.199 115.36 99.286 C 115.647 99.495 115.943 99.711 116.001 99.999 C 116.126 100.66 116.126 101.338 116.001 101.999 C 115.768 102.419 115.421 102.766 115.001 102.999 C 114.907 103.067 114.794 103.105 114.677 103.107 Z"
                    fill="#000000"
                    stroke-width="1"/>
            </g>
        </g>
        <g id="group_17">
            <path
                id="path_6"
                d="M 217 136.001 C 215.066 136.011 213.164 135.508 211.488 134.545 C 209.812 133.581 208.42 132.189 207.456 130.513 C 206.493 128.837 205.99 126.935 206 125.001 C 205.99 123.067 206.493 121.165 207.456 119.489 C 208.42 117.813 209.812 116.421 211.488 115.457 C 213.164 114.494 215.066 113.991 217 114.001 C 218.934 113.991 220.836 114.494 222.512 115.457 C 224.188 116.421 225.58 117.813 226.544 119.489 C 227.507 121.165 228.01 123.067 228 125.001 C 228.01 126.935 227.507 128.837 226.544 130.513 C 225.58 132.189 224.188 133.581 222.512 134.545 C 220.836 135.508 218.934 136.011 217 136.001 Z"
                fill="#000000"
                stroke-width="1"/>
            <path
                id="path_7"
                d="M 203 136.001 C 201.066 136.011 199.164 135.508 197.488 134.545 C 195.812 133.581 194.42 132.189 193.456 130.513 C 192.493 128.837 191.99 126.935 192 125.001 C 191.99 123.067 192.493 121.165 193.456 119.489 C 194.42 117.813 195.812 116.421 197.488 115.457 C 199.164 114.494 201.066 113.991 203 114.001 C 204.934 113.991 206.836 114.494 208.512 115.457 C 210.188 116.421 211.58 117.813 212.544 119.489 C 213.507 121.165 214.01 123.067 214 125.001 C 214.01 126.935 213.507 128.837 212.544 130.513 C 211.58 132.189 210.188 133.581 208.512 134.545 C 206.836 135.508 204.934 136.011 203 136.001 Z"
                fill="#000000"
                stroke-width="1"/>
        </g>
    </g>
</svg>
