<svg
    xmlns="http://www.w3.org/2000/svg"
    viewBox="0 0 279 178"
    id="vector">
    <defs>
        <clipPath id="clip_group">
            <path d="M 267 0 C 269.112 -0.021 271.192 0.521 273.025 1.572 C 274.858 2.622 276.378 4.142 277.428 5.975 C 278.479 7.808 279.021 9.888 279 12 L 279 166 C 279.021 168.112 278.479 170.192 277.428 172.025 C 276.378 173.858 274.858 175.378 273.025 176.428 C 271.192 177.479 269.112 178.021 267 178 L 12 178 C 9.888 178.021 7.808 177.479 5.975 176.428 C 4.142 175.378 2.622 173.858 1.572 172.025 C 0.521 170.192 -0.021 168.112 0 166 L 0 12 C -0.021 9.888 0.521 7.808 1.572 5.975 C 2.622 4.142 4.142 2.622 5.975 1.572 C 7.808 0.521 9.888 -0.021 12 0 Z"/>
        </clipPath>
    </defs>
    <g id="group_19">
        <g id="group_2">
            <path
                id="path"
                d="M 267 0 C 269.112 -0.021 271.192 0.521 273.025 1.572 C 274.858 2.622 276.378 4.142 277.428 5.975 C 278.479 7.808 279.021 9.888 279 12 L 279 166 C 279.021 168.112 278.479 170.192 277.428 172.025 C 276.378 173.858 274.858 175.378 273.025 176.428 C 271.192 177.479 269.112 178.021 267 178 L 12 178 C 9.888 178.021 7.808 177.479 5.975 176.428 C 4.142 175.378 2.622 173.858 1.572 172.025 C 0.521 170.192 -0.021 168.112 0 166 L 0 12 C -0.021 9.888 0.521 7.808 1.572 5.975 C 2.622 4.142 4.142 2.622 5.975 1.572 C 7.808 0.521 9.888 -0.021 12 0 Z"
                fill="#24cdd8"
                stroke-width="1"/>
            <g id="group_1">
                <path
                    id="path_8"
                    d="M 267 0 C 269.112 -0.021 271.192 0.521 273.025 1.572 C 274.858 2.622 276.378 4.142 277.428 5.975 C 278.479 7.808 279.021 9.888 279 12 L 279 166 C 279.021 168.112 278.479 170.192 277.428 172.025 C 276.378 173.858 274.858 175.378 273.025 176.428 C 271.192 177.479 269.112 178.021 267 178 L 12 178 C 9.888 178.021 7.808 177.479 5.975 176.428 C 4.142 175.378 2.622 173.858 1.572 172.025 C 0.521 170.192 -0.021 168.112 0 166 L 0 12 C -0.021 9.888 0.521 7.808 1.572 5.975 C 2.622 4.142 4.142 2.622 5.975 1.572 C 7.808 0.521 9.888 -0.021 12 0 Z"
                    fill="#ff3a79"
                    stroke-width="1"/>
                <g id="wrapper_1">
                    <g
                        id="group"
                        clip-path="url(#clip_group)">
                        <path
                            id="path_9"
                            d="M 197 183 C 156.644 153.5 185.488 137.929 191 117 C 197.187 93.5 162.05 85.375 131 79 C 108.272 74.332 80.387 53.87 58 33 C 37.2 13.606 41.364 12.222 -8 6 L -8 -1 L 292 -1 L 292 183 Z"
                            fill="#000000"
                            stroke-width="1"/>
                        <path
                            id="path_10"
                            d="M 116 -1 C 110.734 22.931 103.147 47.784 73 58 C 29.949 72.588 19.366 98.147 44 120 C 87.62 158.7 36.074 179.307 32 183 L -9 183 L -9 -1 Z"
                            fill="#000000"
                            stroke-width="1"/>
                        <path
                            id="path_11"
                            d="M 229.003 71.999 C 220.294 30.817 171.751 82.321 142.003 54.999 C 112.255 27.677 64.879 42.562 26.003 -1.001 L 292.003 -1.001 L 292.003 87.999 C 258.128 121.905 237.709 113.181 229.003 71.999 Z"
                            fill="#1c162e"
                            stroke-width="1"/>
                    </g>
                </g>
            </g>
        </g>
    </g>
</svg>
