<svg xmlns="http://www.w3.org/2000/svg" xmlns:xlink="http://www.w3.org/1999/xlink" width="334.5" height="91.5" viewBox="0 0 334.5 91.5">
  <defs>
    <filter id="Path_206" x="0" y="0" width="334.5" height="91.5" filterUnits="userSpaceOnUse">
      <feOffset dy="5" input="SourceAlpha"/>
      <feGaussianBlur stdDeviation="2" result="blur"/>
      <feFlood flood-opacity="0.031"/>
      <feComposite operator="in" in2="blur"/>
      <feComposite in="SourceGraphic"/>
    </filter>
  </defs>
  <g id="Group_3646" data-name="Group 3646" transform="translate(-20.835 -576.25)">
    <g transform="matrix(1, 0, 0, 1, 20.83, 576.25)" filter="url(#Path_206)">
      <path id="Path_206-2" data-name="Path 206" d="M-587.875,506.845a9,9,0,0,1-9,9,9,9,0,0,1-9-9h-293v5a4.116,4.116,0,0,1,4,4,4.116,4.116,0,0,1-4,4v5c2.123,0,4,.878,4,3a4.116,4.116,0,0,1-4,4v5a4.116,4.116,0,0,1,4,4,4.116,4.116,0,0,1-4,4v4a4.116,4.116,0,0,1,4,4,4.116,4.116,0,0,1-4,4v5c2.123,0,4,.878,4,3a4.116,4.116,0,0,1-4,4v5a4.116,4.116,0,0,1,4,4,4.116,4.116,0,0,1-4,4v4h293a9,9,0,0,1,9-9,9,9,0,0,1,9,9h11v-79Z" transform="translate(905.13 -505.59)" fill="#fff" stroke="#f2a902" stroke-miterlimit="10" stroke-width="0.5"/>
    </g>
    <text id="R10" transform="translate(109.585 631)" fill="#f2a902" font-size="30" font-family="Poppins-Regular, Poppins" style="isolation: isolate"><tspan x="0" y="0">R10</tspan></text>
    <text id="Valid_For_1_Draw" data-name="Valid For 1 Draw" transform="translate(110.585 647)" fill="#f2a902" font-size="9" font-family="Poppins-Light, Poppins" font-weight="300" style="isolation: isolate"><tspan x="0" y="0">Valid For 1 Draw</tspan></text>
    <text id="Ticket_ID:_32FGK22001F9_" data-name="Ticket ID: 32FGK22001F9#" transform="translate(109.585 596)" fill="#110a00" font-size="12" font-family="Poppins-Light, Poppins" font-weight="300" style="isolation: isolate"><tspan x="0" y="0">Ticket ID: </tspan><tspan y="0" font-family="Poppins-Bold, Poppins" font-weight="700">32FGK22001F9#</tspan></text>
    <text id="Draws:_21_Oct_2021_" data-name="Draws:
21 Oct 2021
" transform="translate(247.585 613)" fill="#979797" font-size="10" font-family="Poppins-Light, Poppins" font-weight="300" style="isolation: isolate"><tspan x="0" y="0">Draws:</tspan><tspan x="0" y="12">21 Oct 2021</tspan><tspan font-family="Poppins-Light"><tspan x="0" y="24"></tspan></tspan></text>
    <line id="Line_24" data-name="Line 24" y2="23" transform="translate(236.085 609.5)" fill="#fff" stroke="#f2a902" stroke-miterlimit="10" stroke-width="0.5"/>
    <rect id="Rectangle_1537" data-name="Rectangle 1537" width="18" height="3" transform="translate(38.585 585)"/>
    <rect id="Rectangle_1538" data-name="Rectangle 1538" width="2" height="3" transform="translate(59.585 585)"/>
    <rect id="Rectangle_1539" data-name="Rectangle 1539" width="10" height="3" transform="translate(72.585 585)"/>
    <rect id="Rectangle_1540" data-name="Rectangle 1540" width="18" height="3" transform="translate(84.585 585)"/>
    <rect id="Rectangle_1541" data-name="Rectangle 1541" width="3" height="2" transform="translate(38.585 588)"/>
    <rect id="Rectangle_1542" data-name="Rectangle 1542" width="2" height="2" transform="translate(54.585 588)"/>
    <rect id="Rectangle_1543" data-name="Rectangle 1543" width="2" height="2" transform="translate(59.585 588)"/>
    <rect id="Rectangle_1544" data-name="Rectangle 1544" width="5" height="2" transform="translate(67.585 588)"/>
    <rect id="Rectangle_1545" data-name="Rectangle 1545" width="3" height="2" transform="translate(84.585 588)"/>
    <rect id="Rectangle_1546" data-name="Rectangle 1546" width="2" height="2" transform="translate(100.585 588)"/>
    <rect id="Rectangle_1547" data-name="Rectangle 1547" width="3" height="3" transform="translate(38.585 590)"/>
    <rect id="Rectangle_1548" data-name="Rectangle 1548" width="7" height="3" transform="translate(44.585 590)"/>
    <rect id="Rectangle_1549" data-name="Rectangle 1549" width="2" height="3" transform="translate(54.585 590)"/>
    <rect id="Rectangle_1550" data-name="Rectangle 1550" width="5" height="3" transform="translate(59.585 590)"/>
    <rect id="Rectangle_1551" data-name="Rectangle 1551" width="3" height="3" transform="translate(69.585 590)"/>
    <rect id="Rectangle_1552" data-name="Rectangle 1552" width="3" height="3" transform="translate(74.585 590)"/>
    <rect id="Rectangle_1553" data-name="Rectangle 1553" width="3" height="3" transform="translate(79.585 590)"/>
    <rect id="Rectangle_1554" data-name="Rectangle 1554" width="3" height="3" transform="translate(84.585 590)"/>
    <rect id="Rectangle_1555" data-name="Rectangle 1555" width="7" height="3" transform="translate(90.585 590)"/>
    <rect id="Rectangle_1556" data-name="Rectangle 1556" width="2" height="3" transform="translate(100.585 590)"/>
    <rect id="Rectangle_1557" data-name="Rectangle 1557" width="3" height="2" transform="translate(38.585 593)"/>
    <rect id="Rectangle_1558" data-name="Rectangle 1558" width="7" height="2" transform="translate(44.585 593)"/>
    <rect id="Rectangle_1559" data-name="Rectangle 1559" width="2" height="2" transform="translate(54.585 593)"/>
    <rect id="Rectangle_1560" data-name="Rectangle 1560" width="8" height="2" transform="translate(59.585 593)"/>
    <rect id="Rectangle_1561" data-name="Rectangle 1561" width="5" height="2" transform="translate(69.585 593)"/>
    <rect id="Rectangle_1562" data-name="Rectangle 1562" width="2" height="2" transform="translate(77.585 593)"/>
    <rect id="Rectangle_1563" data-name="Rectangle 1563" width="3" height="2" transform="translate(84.585 593)"/>
    <rect id="Rectangle_1564" data-name="Rectangle 1564" width="7" height="2" transform="translate(90.585 593)"/>
    <rect id="Rectangle_1565" data-name="Rectangle 1565" width="2" height="2" transform="translate(100.585 593)"/>
    <rect id="Rectangle_1566" data-name="Rectangle 1566" width="3" height="3" transform="translate(38.585 595)"/>
    <rect id="Rectangle_1567" data-name="Rectangle 1567" width="7" height="3" transform="translate(44.585 595)"/>
    <rect id="Rectangle_1568" data-name="Rectangle 1568" width="2" height="3" transform="translate(54.585 595)"/>
    <rect id="Rectangle_1569" data-name="Rectangle 1569" width="6" height="3" transform="translate(61.585 595)"/>
    <rect id="Rectangle_1570" data-name="Rectangle 1570" width="3" height="3" transform="translate(69.585 595)"/>
    <rect id="Rectangle_1571" data-name="Rectangle 1571" width="8" height="3" transform="translate(74.585 595)"/>
    <rect id="Rectangle_1572" data-name="Rectangle 1572" width="3" height="3" transform="translate(84.585 595)"/>
    <rect id="Rectangle_1573" data-name="Rectangle 1573" width="7" height="3" transform="translate(90.585 595)"/>
    <rect id="Rectangle_1574" data-name="Rectangle 1574" width="2" height="3" transform="translate(100.585 595)"/>
    <rect id="Rectangle_1575" data-name="Rectangle 1575" width="3" height="2" transform="translate(38.585 598)"/>
    <rect id="Rectangle_1576" data-name="Rectangle 1576" width="2" height="2" transform="translate(54.585 598)"/>
    <rect id="Rectangle_1577" data-name="Rectangle 1577" width="8" height="2" transform="translate(59.585 598)"/>
    <rect id="Rectangle_1578" data-name="Rectangle 1578" width="3" height="2" transform="translate(79.585 598)"/>
    <rect id="Rectangle_1579" data-name="Rectangle 1579" width="3" height="2" transform="translate(84.585 598)"/>
    <rect id="Rectangle_1580" data-name="Rectangle 1580" width="2" height="2" transform="translate(100.585 598)"/>
    <rect id="Rectangle_1581" data-name="Rectangle 1581" width="18" height="3" transform="translate(38.585 600)"/>
    <rect id="Rectangle_1582" data-name="Rectangle 1582" width="2" height="3" transform="translate(59.585 600)"/>
    <rect id="Rectangle_1583" data-name="Rectangle 1583" width="3" height="3" transform="translate(64.585 600)"/>
    <rect id="Rectangle_1584" data-name="Rectangle 1584" width="3" height="3" transform="translate(69.585 600)"/>
    <rect id="Rectangle_1585" data-name="Rectangle 1585" width="3" height="3" transform="translate(74.585 600)"/>
    <rect id="Rectangle_1586" data-name="Rectangle 1586" width="3" height="3" transform="translate(79.585 600)"/>
    <rect id="Rectangle_1587" data-name="Rectangle 1587" width="18" height="3" transform="translate(84.585 600)"/>
    <rect id="Rectangle_1588" data-name="Rectangle 1588" width="5" height="2" transform="translate(64.585 603)"/>
    <rect id="Rectangle_1589" data-name="Rectangle 1589" width="3" height="2" transform="translate(74.585 603)"/>
    <rect id="Rectangle_1590" data-name="Rectangle 1590" width="6" height="3" transform="translate(38.585 605)"/>
    <rect id="Rectangle_1591" data-name="Rectangle 1591" width="7" height="3" transform="translate(49.585 605)"/>
    <rect id="Rectangle_1592" data-name="Rectangle 1592" width="3" height="3" transform="translate(64.585 605)"/>
    <rect id="Rectangle_1593" data-name="Rectangle 1593" width="5" height="3" transform="translate(69.585 605)"/>
    <rect id="Rectangle_1594" data-name="Rectangle 1594" width="2" height="3" transform="translate(77.585 605)"/>
    <rect id="Rectangle_1595" data-name="Rectangle 1595" width="3" height="3" transform="translate(87.585 605)"/>
    <rect id="Rectangle_1596" data-name="Rectangle 1596" width="10" height="3" transform="translate(92.585 605)"/>
    <rect id="Rectangle_1597" data-name="Rectangle 1597" width="8" height="3" transform="translate(41.585 608)"/>
    <rect id="Rectangle_1598" data-name="Rectangle 1598" width="3" height="3" transform="translate(51.585 608)"/>
    <rect id="Rectangle_1599" data-name="Rectangle 1599" width="5" height="3" transform="translate(56.585 608)"/>
    <rect id="Rectangle_1600" data-name="Rectangle 1600" width="2" height="3" transform="translate(72.585 608)"/>
    <rect id="Rectangle_1601" data-name="Rectangle 1601" width="5" height="3" transform="translate(77.585 608)"/>
    <rect id="Rectangle_1602" data-name="Rectangle 1602" width="8" height="3" transform="translate(87.585 608)"/>
    <rect id="Rectangle_1603" data-name="Rectangle 1603" width="3" height="3" transform="translate(97.585 608)"/>
    <rect id="Rectangle_1604" data-name="Rectangle 1604" width="3" height="2" transform="translate(38.585 611)"/>
    <rect id="Rectangle_1605" data-name="Rectangle 1605" width="3" height="2" transform="translate(46.585 611)"/>
    <rect id="Rectangle_1606" data-name="Rectangle 1606" width="16" height="2" transform="translate(51.585 611)"/>
    <rect id="Rectangle_1607" data-name="Rectangle 1607" width="5" height="2" transform="translate(77.585 611)"/>
    <rect id="Rectangle_1608" data-name="Rectangle 1608" width="6" height="2" transform="translate(84.585 611)"/>
    <rect id="Rectangle_1609" data-name="Rectangle 1609" width="5" height="2" transform="translate(92.585 611)"/>
    <rect id="Rectangle_1610" data-name="Rectangle 1610" width="3" height="3" transform="translate(38.585 613)"/>
    <rect id="Rectangle_1611" data-name="Rectangle 1611" width="10" height="3" transform="translate(44.585 613)"/>
    <rect id="Rectangle_1612" data-name="Rectangle 1612" width="8" height="3" transform="translate(56.585 613)"/>
    <rect id="Rectangle_1613" data-name="Rectangle 1613" width="3" height="3" transform="translate(69.585 613)"/>
    <rect id="Rectangle_1614" data-name="Rectangle 1614" width="3" height="3" transform="translate(74.585 613)"/>
    <rect id="Rectangle_1615" data-name="Rectangle 1615" width="8" height="3" transform="translate(82.585 613)"/>
    <rect id="Rectangle_1616" data-name="Rectangle 1616" width="5" height="3" transform="translate(95.585 613)"/>
    <rect id="Rectangle_1617" data-name="Rectangle 1617" width="2" height="2" transform="translate(49.585 616)"/>
    <rect id="Rectangle_1618" data-name="Rectangle 1618" width="7" height="2" transform="translate(54.585 616)"/>
    <rect id="Rectangle_1619" data-name="Rectangle 1619" width="7" height="2" transform="translate(67.585 616)"/>
    <rect id="Rectangle_1620" data-name="Rectangle 1620" width="2" height="2" transform="translate(77.585 616)"/>
    <rect id="Rectangle_1621" data-name="Rectangle 1621" width="8" height="2" transform="translate(82.585 616)"/>
    <rect id="Rectangle_1622" data-name="Rectangle 1622" width="10" height="2" transform="translate(92.585 616)"/>
    <rect id="Rectangle_1623" data-name="Rectangle 1623" width="3" height="3" transform="translate(38.585 618)"/>
    <rect id="Rectangle_1624" data-name="Rectangle 1624" width="8" height="3" transform="translate(46.585 618)"/>
    <rect id="Rectangle_1625" data-name="Rectangle 1625" width="3" height="3" transform="translate(56.585 618)"/>
    <rect id="Rectangle_1626" data-name="Rectangle 1626" width="6" height="3" transform="translate(61.585 618)"/>
    <rect id="Rectangle_1627" data-name="Rectangle 1627" width="5" height="3" transform="translate(69.585 618)"/>
    <rect id="Rectangle_1628" data-name="Rectangle 1628" width="2" height="3" transform="translate(77.585 618)"/>
    <rect id="Rectangle_1629" data-name="Rectangle 1629" width="2" height="3" transform="translate(82.585 618)"/>
    <rect id="Rectangle_1630" data-name="Rectangle 1630" width="2" height="3" transform="translate(90.585 618)"/>
    <rect id="Rectangle_1631" data-name="Rectangle 1631" width="3" height="3" transform="translate(97.585 618)"/>
    <rect id="Rectangle_1632" data-name="Rectangle 1632" width="2" height="2" transform="translate(44.585 621)"/>
    <rect id="Rectangle_1633" data-name="Rectangle 1633" width="2" height="2" transform="translate(49.585 621)"/>
    <rect id="Rectangle_1634" data-name="Rectangle 1634" width="2" height="2" transform="translate(54.585 621)"/>
    <rect id="Rectangle_1635" data-name="Rectangle 1635" width="10" height="2" transform="translate(64.585 621)"/>
    <rect id="Rectangle_1636" data-name="Rectangle 1636" width="7" height="2" transform="translate(77.585 621)"/>
    <rect id="Rectangle_1637" data-name="Rectangle 1637" width="5" height="2" transform="translate(92.585 621)"/>
    <rect id="Rectangle_1638" data-name="Rectangle 1638" width="10" height="3" transform="translate(44.585 623)"/>
    <rect id="Rectangle_1639" data-name="Rectangle 1639" width="3" height="3" transform="translate(56.585 623)"/>
    <rect id="Rectangle_1640" data-name="Rectangle 1640" width="3" height="3" transform="translate(61.585 623)"/>
    <rect id="Rectangle_1641" data-name="Rectangle 1641" width="5" height="3" transform="translate(67.585 623)"/>
    <rect id="Rectangle_1642" data-name="Rectangle 1642" width="5" height="3" transform="translate(77.585 623)"/>
    <rect id="Rectangle_1643" data-name="Rectangle 1643" width="3" height="3" transform="translate(87.585 623)"/>
    <rect id="Rectangle_1644" data-name="Rectangle 1644" width="8" height="3" transform="translate(92.585 623)"/>
    <rect id="Rectangle_1645" data-name="Rectangle 1645" width="6" height="3" transform="translate(38.585 626)"/>
    <rect id="Rectangle_1646" data-name="Rectangle 1646" width="3" height="3" transform="translate(46.585 626)"/>
    <rect id="Rectangle_1647" data-name="Rectangle 1647" width="7" height="3" transform="translate(54.585 626)"/>
    <rect id="Rectangle_1648" data-name="Rectangle 1648" width="3" height="3" transform="translate(69.585 626)"/>
    <rect id="Rectangle_1649" data-name="Rectangle 1649" width="3" height="3" transform="translate(74.585 626)"/>
    <rect id="Rectangle_1650" data-name="Rectangle 1650" width="18" height="3" transform="translate(79.585 626)"/>
    <rect id="Rectangle_1651" data-name="Rectangle 1651" width="10" height="2" transform="translate(59.585 629)"/>
    <rect id="Rectangle_1652" data-name="Rectangle 1652" width="8" height="2" transform="translate(74.585 629)"/>
    <rect id="Rectangle_1653" data-name="Rectangle 1653" width="2" height="2" transform="translate(90.585 629)"/>
    <rect id="Rectangle_1654" data-name="Rectangle 1654" width="2" height="2" transform="translate(95.585 629)"/>
    <rect id="Rectangle_1655" data-name="Rectangle 1655" width="18" height="3" transform="translate(38.585 631)"/>
    <rect id="Rectangle_1656" data-name="Rectangle 1656" width="3" height="3" transform="translate(61.585 631)"/>
    <rect id="Rectangle_1657" data-name="Rectangle 1657" width="2" height="3" transform="translate(67.585 631)"/>
    <rect id="Rectangle_1658" data-name="Rectangle 1658" width="3" height="3" transform="translate(74.585 631)"/>
    <rect id="Rectangle_1659" data-name="Rectangle 1659" width="3" height="3" transform="translate(79.585 631)"/>
    <rect id="Rectangle_1660" data-name="Rectangle 1660" width="3" height="3" transform="translate(84.585 631)"/>
    <rect id="Rectangle_1661" data-name="Rectangle 1661" width="5" height="3" transform="translate(90.585 631)"/>
    <rect id="Rectangle_1662" data-name="Rectangle 1662" width="3" height="2" transform="translate(38.585 634)"/>
    <rect id="Rectangle_1663" data-name="Rectangle 1663" width="2" height="2" transform="translate(54.585 634)"/>
    <rect id="Rectangle_1664" data-name="Rectangle 1664" width="2" height="2" transform="translate(59.585 634)"/>
    <rect id="Rectangle_1665" data-name="Rectangle 1665" width="8" height="2" transform="translate(64.585 634)"/>
    <rect id="Rectangle_1666" data-name="Rectangle 1666" width="3" height="2" transform="translate(74.585 634)"/>
    <rect id="Rectangle_1667" data-name="Rectangle 1667" width="3" height="2" transform="translate(79.585 634)"/>
    <rect id="Rectangle_1668" data-name="Rectangle 1668" width="12" height="2" transform="translate(90.585 634)"/>
    <rect id="Rectangle_1669" data-name="Rectangle 1669" width="3" height="3" transform="translate(38.585 636)"/>
    <rect id="Rectangle_1670" data-name="Rectangle 1670" width="7" height="3" transform="translate(44.585 636)"/>
    <rect id="Rectangle_1671" data-name="Rectangle 1671" width="2" height="3" transform="translate(54.585 636)"/>
    <rect id="Rectangle_1672" data-name="Rectangle 1672" width="8" height="3" transform="translate(59.585 636)"/>
    <rect id="Rectangle_1673" data-name="Rectangle 1673" width="5" height="3" transform="translate(69.585 636)"/>
    <rect id="Rectangle_1674" data-name="Rectangle 1674" width="13" height="3" transform="translate(79.585 636)"/>
    <rect id="Rectangle_1675" data-name="Rectangle 1675" width="2" height="3" transform="translate(95.585 636)"/>
    <rect id="Rectangle_1676" data-name="Rectangle 1676" width="3" height="2" transform="translate(38.585 639)"/>
    <rect id="Rectangle_1677" data-name="Rectangle 1677" width="7" height="2" transform="translate(44.585 639)"/>
    <rect id="Rectangle_1678" data-name="Rectangle 1678" width="2" height="2" transform="translate(54.585 639)"/>
    <rect id="Rectangle_1679" data-name="Rectangle 1679" width="2" height="2" transform="translate(67.585 639)"/>
    <rect id="Rectangle_1680" data-name="Rectangle 1680" width="18" height="2" transform="translate(72.585 639)"/>
    <rect id="Rectangle_1681" data-name="Rectangle 1681" width="10" height="2" transform="translate(92.585 639)"/>
    <rect id="Rectangle_1682" data-name="Rectangle 1682" width="3" height="3" transform="translate(38.585 641)"/>
    <rect id="Rectangle_1683" data-name="Rectangle 1683" width="7" height="3" transform="translate(44.585 641)"/>
    <rect id="Rectangle_1684" data-name="Rectangle 1684" width="2" height="3" transform="translate(54.585 641)"/>
    <rect id="Rectangle_1685" data-name="Rectangle 1685" width="7" height="3" transform="translate(67.585 641)"/>
    <rect id="Rectangle_1686" data-name="Rectangle 1686" width="3" height="3" transform="translate(79.585 641)"/>
    <rect id="Rectangle_1687" data-name="Rectangle 1687" width="6" height="3" transform="translate(84.585 641)"/>
    <rect id="Rectangle_1688" data-name="Rectangle 1688" width="3" height="3" transform="translate(97.585 641)"/>
    <rect id="Rectangle_1689" data-name="Rectangle 1689" width="3" height="2" transform="translate(38.585 644)"/>
    <rect id="Rectangle_1690" data-name="Rectangle 1690" width="2" height="2" transform="translate(54.585 644)"/>
    <rect id="Rectangle_1691" data-name="Rectangle 1691" width="2" height="2" transform="translate(59.585 644)"/>
    <rect id="Rectangle_1692" data-name="Rectangle 1692" width="3" height="2" transform="translate(69.585 644)"/>
    <rect id="Rectangle_1693" data-name="Rectangle 1693" width="3" height="2" transform="translate(74.585 644)"/>
    <rect id="Rectangle_1694" data-name="Rectangle 1694" width="2" height="2" transform="translate(82.585 644)"/>
    <rect id="Rectangle_1695" data-name="Rectangle 1695" width="13" height="2" transform="translate(87.585 644)"/>
    <rect id="Rectangle_1696" data-name="Rectangle 1696" width="18" height="3" transform="translate(38.585 646)"/>
    <rect id="Rectangle_1697" data-name="Rectangle 1697" width="13" height="3" transform="translate(59.585 646)"/>
    <rect id="Rectangle_1698" data-name="Rectangle 1698" width="2" height="3" transform="translate(77.585 646)"/>
    <rect id="Rectangle_1699" data-name="Rectangle 1699" width="7" height="3" transform="translate(95.585 646)"/>
  </g>
</svg>
