<svg id="Group_64" data-name="Group 64" xmlns="http://www.w3.org/2000/svg" xmlns:xlink="http://www.w3.org/1999/xlink" width="279" height="178" viewBox="0 0 279 178">
  <defs>
    <clipPath id="clip-path">
      <path id="CARD" d="M267,0a11.882,11.882,0,0,1,12,12V166a11.882,11.882,0,0,1-12,12H12A11.882,11.882,0,0,1,0,166V12A11.882,11.882,0,0,1,12,0Z" fill="#ff3a79"/>
    </clipPath>
    <linearGradient id="linear-gradient" x1="1.541" y1="0.582" x2="0.541" y2="0.5" gradientUnits="objectBoundingBox">
      <stop offset="0" stop-color="#e83f94"/>
      <stop offset="1" stop-color="#f54e5e"/>
    </linearGradient>
    <linearGradient id="linear-gradient-2" y1="0.5" x2="1" y2="0.5" gradientUnits="objectBoundingBox">
      <stop offset="0" stop-color="#9d70ff"/>
      <stop offset="1" stop-color="#7460ff"/>
    </linearGradient>
  </defs>
  <g id="_14_-_DESIGN_CARD" data-name="14 - DESIGN CARD">
    <g id="CARD-2" data-name="CARD">
      <path id="CARD-3" data-name="CARD" d="M267,0a11.882,11.882,0,0,1,12,12V166a11.882,11.882,0,0,1-12,12H12A11.882,11.882,0,0,1,0,166V12A11.882,11.882,0,0,1,12,0Z" fill="#24cdd8"/>
      <g id="Mask_Group" data-name="Mask Group">
        <path id="CARD-4" data-name="CARD" d="M267,0a11.882,11.882,0,0,1,12,12V166a11.882,11.882,0,0,1-12,12H12A11.882,11.882,0,0,1,0,166V12A11.882,11.882,0,0,1,12,0Z" fill="#ff3a79"/>
        <g id="Mask_Group-2" data-name="Mask Group" clip-path="url(#clip-path)">
          <g id="Clip" transform="translate(-8.678 -1.394)">
            <path id="SHAPE" d="M205.252,184.394c-40.356-29.5-11.512-45.071-6-66,6.187-23.5-28.95-31.625-60-38-22.728-4.668-50.613-25.13-73-46-20.8-19.394-16.636-20.778-66-27v-7h300v184Z" transform="translate(0.426)" fill="url(#linear-gradient)"/>
            <path id="SHAPE-2" data-name="SHAPE" d="M124.678.394c-5.266,23.931-12.853,48.784-43,59-43.051,14.588-53.634,40.147-29,62,43.62,38.7-7.926,59.307-12,63h-41V.394Z" fill="url(#linear-gradient-2)"/>
            <path id="SHAPE-3" data-name="SHAPE" d="M203.3,72.952c-8.709-41.182-57.252,10.322-87-17S39.176,43.515.3-.048h266v89C232.425,122.858,212.006,114.134,203.3,72.952Z" transform="translate(34.381 0.441)" fill="#1c162e"/>
          </g>
        </g>
      </g>
    </g>
  </g>
</svg>
