<svg xmlns="http://www.w3.org/2000/svg" width="21" height="25" viewBox="0 0 21 25">
  <g id="Group_1112" data-name="Group 1112" transform="translate(0 0)">
    <path id="Path_2667" data-name="Path 2667" d="M53.385,12a8.467,8.467,0,0,0,3-6c0-3.509-3.491-6-7-6a5.767,5.767,0,0,0-6,6,8.467,8.467,0,0,0,3,6c-3.948,1.511-7,4.528-7,9,0,1.93,1.07,4,3,4h14a4.42,4.42,0,0,0,4-4C60.385,16.528,57.333,13.511,53.385,12Zm-8-6a3.722,3.722,0,0,1,4-4c2.456,0,5,1.544,5,4a5.449,5.449,0,0,1-5,5C46.929,11,45.385,8.456,45.385,6Zm11,17h-14c-.877,0-1-1.123-1-2,0-4.737,4.263-8,9-8a7.625,7.625,0,0,1,8,8A2.382,2.382,0,0,1,56.385,23Z" transform="translate(-39.385 0)" fill="#fff"/>
  </g>
</svg>
