<svg id="Group_20" data-name="Group 20" xmlns="http://www.w3.org/2000/svg" xmlns:xlink="http://www.w3.org/1999/xlink" width="249" height="157" viewBox="0 0 249 157">
  <defs>
    <linearGradient id="linear-gradient" y1="0.5" x2="1" y2="0.5" gradientUnits="objectBoundingBox">
      <stop offset="0" stop-color="#9d70ff"/>
      <stop offset="1" stop-color="#7460ff"/>
    </linearGradient>
    <clipPath id="clip-path">
      <path id="CARD" d="M238,0a11.159,11.159,0,0,1,11,11V146a11.159,11.159,0,0,1-11,11H11A11.159,11.159,0,0,1,0,146V11A11.159,11.159,0,0,1,11,0Z" fill="#fcc2ce"/>
    </clipPath>
  </defs>
  <g id="_66_-_DESIGN_CARD" data-name="66 - DESIGN CARD">
    <g id="CARD-2" data-name="CARD">
      <path id="CARD-3" data-name="CARD" d="M238,0a11.159,11.159,0,0,1,11,11V146a11.159,11.159,0,0,1-11,11H11A11.159,11.159,0,0,1,0,146V11A11.159,11.159,0,0,1,11,0Z" fill="url(#linear-gradient)"/>
      <g id="Mask_Group" data-name="Mask Group" transform="translate(0.002)">
        <path id="CARD-4" data-name="CARD" d="M238,0a11.159,11.159,0,0,1,11,11V146a11.159,11.159,0,0,1-11,11H11A11.159,11.159,0,0,1,0,146V11A11.159,11.159,0,0,1,11,0Z" fill="#fcc2ce"/>
        <g id="Mask_Group-2" data-name="Mask Group" clip-path="url(#clip-path)">
          <g id="Clip" transform="translate(-160.969 -229.971)">
            <path id="SHAPE" d="M132.967,11.971c.25-.154.75-.848,1-1,30.779-18.656,119.552-29.054,248,96,70.223,164.586-10.221,223.344-41,242-.25.152-.748.85-1,1h0l-54,33-55,33-24,15h0l-151-141-56-197h0l72-44,7-4,54-33Z" fill="rgba(52,67,86,0.29)" opacity="0.8"/>
            <path id="SHAPE-2" data-name="SHAPE" d="M109.656,16.491c.205-.126.794-.876,1-1,25.308-15.275,111.157-45.273,211,63,50.342,138.148-16.692,199.725-42,215-.206.123-.793.877-1,1h0l-45,27-44,27-20,12h0l-124-116-46-162h0l59-36,6-3,45-27Z" transform="translate(1.311 149.479)" opacity="0.749" fill="url(#linear-gradient)"/>
          </g>
        </g>
      </g>
    </g>
  </g>
  <g id="_66_-_INFORMATION_CARD" data-name="66 - INFORMATION CARD" transform="translate(19.863 14.896)">
    <g id="INFORMATION_CARD_-_WHITE_COLOR" data-name="INFORMATION CARD - WHITE COLOR">
      <text id="John_Smith" data-name="John Smith" transform="translate(0.137 0.104)" fill="#fff" font-size="14" font-family="Helvetica"><tspan x="0" y="11">Tau Legae</tspan></text>
      <text id="_3.469.52" data-name="$3.469.52" transform="translate(0.137 105.104)" fill="#fff" font-size="8.976" font-family="Avenir-Medium, Avenir" font-weight="500"><tspan x="0" y="9">$3.469.52</tspan></text>
      <text id="_9018" data-name="9018" transform="translate(116.137 82.104)" fill="#fff" font-size="6.738" font-family="Avenir-Medium, Avenir" font-weight="500"><tspan x="0" y="7" xml:space="preserve"> 9018</tspan></text>
      <text id="_4756" data-name="4756" transform="translate(0.137 82.104)" fill="#fff" font-size="6.738" font-family="Avenir-Medium, Avenir" font-weight="500"><tspan x="0" y="7" xml:space="preserve"> 4756 </tspan></text>
      <g id="CIRCLES_HIDE" data-name="CIRCLES HIDE" transform="translate(36.629 83.733)">
        <path id="CIRCLES_HIDE-2" data-name="CIRCLES HIDE" d="M27.925,4.477a8.832,8.832,0,0,1-.886-.064c-.217-.023-.405-.043-.531-.043H26.5c-.364,0-.5-.243-.659-.524a2.006,2.006,0,0,0-.335-.477,2.15,2.15,0,0,0-.466-.325c-.285-.162-.531-.3-.534-.675,0-.256.269-.435.532-.608a1.617,1.617,0,0,0,.468-.392,2.7,2.7,0,0,1,1-1,1.038,1.038,0,0,1,.417-.1,1.824,1.824,0,0,1,.381.056c.063.013.129.027.2.041a.664.664,0,0,0,.122.011,1.047,1.047,0,0,0,.329-.065l.02-.007A.872.872,0,0,1,28.242.25a.365.365,0,0,1,.265.119,3.292,3.292,0,0,0,.358.285c.286.209.583.424.642.714s-.334.9-.649,1.4a5.168,5.168,0,0,0-.351.6.671.671,0,0,0,.056.516c.075.19.14.354-.056.485A1.113,1.113,0,0,1,27.925,4.477Zm-8.741,0a1.138,1.138,0,0,1-.274-.046,1.577,1.577,0,0,0-.4-.061H18.5c-.364,0-.5-.243-.659-.524a2.007,2.007,0,0,0-.335-.477,2.15,2.15,0,0,0-.466-.325c-.285-.162-.531-.3-.534-.675a1.689,1.689,0,0,0-.061-.392.657.657,0,0,1,.061-.608,2.7,2.7,0,0,1,1-1,2.307,2.307,0,0,1,.794-.1,7.7,7.7,0,0,1,1.205.1.664.664,0,0,0,.122.011,1.046,1.046,0,0,0,.329-.065l.02-.007A.872.872,0,0,1,20.242.25a.365.365,0,0,1,.265.119c.178.174.124.337.061.525a.881.881,0,0,0-.061.475,5.354,5.354,0,0,1,0,2,2.69,2.69,0,0,1-1,1A.566.566,0,0,1,19.184,4.477Zm-8,0a1.137,1.137,0,0,1-.273-.046,1.577,1.577,0,0,0-.4-.061H10.5a3.885,3.885,0,0,1-1.993-1c-.245-.241-.2-.343-.118-.513a1.021,1.021,0,0,0,.118-.487,1.677,1.677,0,0,0-.061-.393.656.656,0,0,1,.061-.607,2.6,2.6,0,0,1,1-1,1.039,1.039,0,0,1,.417-.1,1.825,1.825,0,0,1,.382.056c.061.013.127.027.2.041a.664.664,0,0,0,.122.011,1.046,1.046,0,0,0,.329-.065l.02-.007A.872.872,0,0,1,11.242.25a.365.365,0,0,1,.265.119,3.29,3.29,0,0,0,.358.286c.286.209.582.424.643.714a5.4,5.4,0,0,1,0,2,2.57,2.57,0,0,1-1,1A.566.566,0,0,1,11.184,4.477Zm-8,0a1.138,1.138,0,0,1-.274-.046,1.578,1.578,0,0,0-.4-.061H2.5a3.885,3.885,0,0,1-1.993-1,2.15,2.15,0,0,0-.466-.325c-.285-.162-.531-.3-.534-.675,0-.256.269-.435.532-.608a1.617,1.617,0,0,0,.467-.392,2.6,2.6,0,0,1,1-1,1.039,1.039,0,0,1,.417-.1,1.825,1.825,0,0,1,.382.056c.061.013.127.027.2.041A.664.664,0,0,0,2.629.38,1.046,1.046,0,0,0,2.958.315L2.979.308A.876.876,0,0,1,3.243.25a.365.365,0,0,1,.266.119,3.294,3.294,0,0,0,.357.285c.287.209.582.425.643.715a5.4,5.4,0,0,1,0,2,2.694,2.694,0,0,1-1,1A.568.568,0,0,1,3.185,4.477Z" transform="translate(0 0.002)" fill="#fff"/>
        <path id="CIRCLES_HIDE-3" data-name="CIRCLES HIDE" d="M27.768,4.479a1.139,1.139,0,0,1-.274-.046,1.576,1.576,0,0,0-.4-.061h-.006a3.883,3.883,0,0,1-1.993-1c-.246-.241-.2-.343-.118-.513a1.019,1.019,0,0,0,.118-.486,1.684,1.684,0,0,0-.061-.393.656.656,0,0,1,.061-.608,2.7,2.7,0,0,1,1-1,1.038,1.038,0,0,1,.417-.1A1.823,1.823,0,0,1,26.89.33c.063.013.129.027.2.041a.664.664,0,0,0,.122.011,1.047,1.047,0,0,0,.329-.065l.02-.007a.872.872,0,0,1,.264-.059.365.365,0,0,1,.265.119,3.3,3.3,0,0,0,.358.286c.286.209.583.425.642.714a5.4,5.4,0,0,1,0,2,2.693,2.693,0,0,1-1,1A.566.566,0,0,1,27.768,4.479Zm-16.259,0a8.83,8.83,0,0,1-.886-.064c-.217-.023-.405-.043-.531-.043h-.006c-.364,0-.5-.243-.659-.523a2,2,0,0,0-.335-.476,2.163,2.163,0,0,0-.466-.325c-.285-.163-.531-.3-.534-.675a1.684,1.684,0,0,0-.061-.393.656.656,0,0,1,.061-.608,2.7,2.7,0,0,1,1-1,2.305,2.305,0,0,1,.794-.1,7.71,7.71,0,0,1,1.206.1.664.664,0,0,0,.122.011,1.047,1.047,0,0,0,.329-.065l.02-.007a.872.872,0,0,1,.264-.059.365.365,0,0,1,.265.119c.178.174.124.337.061.526a.88.88,0,0,0-.061.474,5.361,5.361,0,0,1,0,2,.669.669,0,0,0,.056.515c.075.19.14.354-.056.485A1.113,1.113,0,0,1,11.509,4.479Zm-8.741,0a1.139,1.139,0,0,1-.274-.046,1.576,1.576,0,0,0-.4-.061H2.085c-.364,0-.5-.243-.659-.523a2,2,0,0,0-.335-.476,2.155,2.155,0,0,0-.466-.325c-.285-.163-.531-.3-.534-.675a1.69,1.69,0,0,0-.061-.393.658.658,0,0,1,.061-.608,2.7,2.7,0,0,1,1-1,2.307,2.307,0,0,1,.794-.1,7.7,7.7,0,0,1,1.205.1.664.664,0,0,0,.122.011A1.047,1.047,0,0,0,3.542.317L3.562.31A.872.872,0,0,1,3.826.252a.365.365,0,0,1,.265.119c.178.174.124.337.061.526a.88.88,0,0,0-.061.474,5.36,5.36,0,0,1,0,2,2.693,2.693,0,0,1-1,1A.566.566,0,0,1,2.768,4.479Zm17,0a1.147,1.147,0,0,1-.275-.046,1.583,1.583,0,0,0-.4-.061h-.005a3.875,3.875,0,0,1-1.995-1,2.15,2.15,0,0,0-.466-.325c-.285-.163-.532-.3-.534-.675,0-.257.27-.436.534-.61a1.629,1.629,0,0,0,.466-.391,2.6,2.6,0,0,1,1-1,1.044,1.044,0,0,1,.418-.1A1.848,1.848,0,0,1,18.9.331c.06.013.124.026.195.04a.658.658,0,0,0,.121.011,1.047,1.047,0,0,0,.329-.065l.019-.006a.881.881,0,0,1,.265-.059.365.365,0,0,1,.265.119,3.285,3.285,0,0,0,.358.286c.287.209.583.425.641.713a5.381,5.381,0,0,1,0,2,2.571,2.571,0,0,1-1,1A.566.566,0,0,1,19.769,4.478Z" transform="translate(38.416)" fill="#fff"/>
      </g>
    </g>
    <g id="MASTERCARD_-_WHITE_LOGO_-_STYLE_1" data-name="MASTERCARD - WHITE LOGO - STYLE 1" transform="translate(171.92 99.417)">
      <path id="WHITE" d="M11.332,21.688a10.943,10.943,0,0,1-11-11,10.943,10.943,0,0,1,11-11,10.943,10.943,0,0,1,11,11A10.943,10.943,0,0,1,11.332,21.688Z" transform="translate(13.885)" fill="#fff" opacity="0.6"/>
      <path id="WHITE-2" data-name="WHITE" d="M11.217,21.686a10.943,10.943,0,0,1-11-11,10.943,10.943,0,0,1,11-11,10.943,10.943,0,0,1,11,11A10.943,10.943,0,0,1,11.217,21.686Z" transform="translate(0 0.002)" fill="#fff"/>
    </g>
  </g>
</svg>
