<svg xmlns="http://www.w3.org/2000/svg" width="35" height="35" viewBox="0 0 35 35">
  <g id="Facebook_" data-name="Facebook " transform="translate(-70 -549)">
    <circle id="bg" cx="17.5" cy="17.5" r="17.5" transform="translate(70 549)" fill="#453bc9"/>
    <g id="facebook-logo_1_" data-name="facebook-logo (1)" transform="translate(59.923 558)">
      <path id="Path_2634" data-name="Path 2634" d="M32.077,0h-2c-2.888,0-5,1.458-5,4V6h-3c-.223,0,0-.192,0,0V9c0,.192-.223,1,0,1h3v7c0,.192-.223,0,0,0h4c.223,0,0,.191,0,0V10h3c.223,0,1-.808,1-1V6c0-.092-.924.065-1,0s.107,0,0,0h-3V4c0-.786.806-1,2-1h1c.223,0,1,.191,1,0V0C33.077-.191,32.3,0,32.077,0Z" transform="translate(0)" fill="#fff"/>
    </g>
  </g>
</svg>
