<svg xmlns="http://www.w3.org/2000/svg" width="22.103" height="19.619" viewBox="0 0 22.103 19.619">
  <g id="Favorites_Icon_Grey_" data-name="Favorites Icon (Grey)" transform="translate(-251.448 -773.8)">
    <path id="Path_202" data-name="Path 202" d="M-662.876,922.7a4.962,4.962,0,0,1-3-.988c-4.651-3.483-7.156-7.567-7.244-11.81v-.011a5.191,5.191,0,0,1,5.177-5.191,5.146,5.146,0,0,1,3.583,1.445l1.482,1.424,1.482-1.424a5.146,5.146,0,0,1,3.583-1.445,5.191,5.191,0,0,1,5.177,5.193c-.086,4.248-2.591,8.334-7.244,11.819a5.031,5.031,0,0,1-3,.988Z" transform="translate(925.375 -130.094)" fill="none" stroke="#d6d6d6" stroke-linecap="round" stroke-linejoin="round" stroke-width="1.619"/>
  </g>
</svg>
