<svg xmlns="http://www.w3.org/2000/svg" width="35" height="35" viewBox="0 0 35 35">
  <g id="Google" transform="translate(-70 -549)">
    <circle id="bg" cx="17.5" cy="17.5" r="17.5" transform="translate(70 549)" fill="#ea4335"/>
    <g id="google-2" data-name="google" transform="translate(79 558)">
      <g id="Group_1088" data-name="Group 1088" transform="translate(0 4.611)">
        <g id="Group_1087" data-name="Group 1087">
          <path id="Path_2635" data-name="Path 2635" d="M4,144.106l-3-1a9.289,9.289,0,0,0-1,4,5.481,5.481,0,0,0,1,3l3-1c-.294-.662-1-1.231-1-2A10.718,10.718,0,0,1,4,144.106Z" transform="translate(0 -142.717)" fill="#fff"/>
        </g>
      </g>
      <g id="Group_1090" data-name="Group 1090" transform="translate(1.481 0)">
        <g id="Group_1089" data-name="Group 1089" transform="translate(0 0)">
          <path id="Path_2636" data-name="Path 2636" d="M56.646,2a9.247,9.247,0,0,0-6-2,10.194,10.194,0,0,0-8,4l3,2c.974-1.329,3.23-3,5-3,1.29,0,2.076,1.236,3,2a.919.919,0,0,0,1,0l2-2A.776.776,0,0,0,56.646,2Z" transform="translate(-43.127 0)" fill="#fff"/>
        </g>
      </g>
      <g id="Group_1092" data-name="Group 1092" transform="translate(8.593 6.683)">
        <g id="Group_1091" data-name="Group 1091">
          <path id="Path_2637" data-name="Path 2637" d="M275.538,211.8c-.034-.291-.707,0-1,0h-7c-.317,0,0-.317,0,0v3c0,.317-.317,0,0,0h4a7.631,7.631,0,0,1-2,3l2,2a9.577,9.577,0,0,0,4-5A6.945,6.945,0,0,0,275.538,211.8Z" transform="translate(-267.131 -211.479)" fill="#fff"/>
        </g>
      </g>
      <g id="Group_1094" data-name="Group 1094" transform="translate(1.493 11.363)">
        <g id="Group_1093" data-name="Group 1093">
          <path id="Path_2638" data-name="Path 2638" d="M52.994,349.438c-.661.294-1.23,1-2,1-1.772,0-4.026-1.671-5-3l-3,2a10.18,10.18,0,0,0,8,4,9.2,9.2,0,0,0,4-1Z" transform="translate(-43.487 -347.801)" fill="#fff"/>
        </g>
      </g>
    </g>
  </g>
</svg>
