<svg xmlns="http://www.w3.org/2000/svg" width="22.642" height="30.392" viewBox="0 0 22.642 30.392">
  <g id="Home_Icon" data-name="Home Icon" transform="translate(-26.179 -771.889)">
    <g id="Home_Icon_Colored_" data-name="Home Icon (Colored)">
      <path id="Path_198" data-name="Path 198" d="M-893.889,923.773a4.462,4.462,0,0,1-4.457-4.457v-7.442a4.486,4.486,0,0,1,1.754-3.544l6.014-4.586a4.478,4.478,0,0,1,2.7-.911,4.478,4.478,0,0,1,2.7.911l6.014,4.586a4.486,4.486,0,0,1,1.754,3.544v7.442a4.462,4.462,0,0,1-4.457,4.457Z" transform="translate(925.375 -130.094)" fill="none" stroke="#d6d6d6" stroke-linecap="round" stroke-linejoin="round" stroke-width="1.7"/>
      <circle id="Ellipse_84" data-name="Ellipse 84" cx="1.5" cy="1.5" r="1.5" transform="translate(36 799.281)" fill="#d6d6d6"/>
    </g>
  </g>
</svg>
