<svg xmlns="http://www.w3.org/2000/svg" xmlns:xlink="http://www.w3.org/1999/xlink" width="100" height="100" viewBox="0 0 100 100">
  <defs>
    <clipPath id="clip-path">
      <path id="Path_23" data-name="Path 23" d="M1.162,47.191a1.19,1.19,0,0,1-1-1v-21h3c.641-.105.716-.416,1-1l5-10c.053-.11-.089.083,0,0l5-5,1-9h0a6.354,6.354,0,0,1,6,6v4l-2,5a3.1,3.1,0,0,0,3,4h7c.229,0,.822.856,1,1l3,2c.663.537,1.292,1.2,1,2l-2,3,2,3c.262.61-.642,1.441-1,2l-1,3,1,2c.252.719-.467,1.456-1,2l-2,2,1,3a2.179,2.179,0,0,1-1,2l-3,2c-.344.253-.573,0-1,0h-15c-.059,0-.942.01-1,0Z" fill="#fff" stroke="#430062" stroke-miterlimit="10" stroke-width="1"/>
    </clipPath>
    <clipPath id="clip-path-2">
      <path id="Combined_Shape" data-name="Combined Shape" d="M5.4,7.259Zm-5-2C-.2,4.117,1.749,2.168,3.386.8L2.4,3.26A3.084,3.084,0,0,0,5.038,7.238C4.028,7.16,1.211,6.8.4,5.26Z" fill="#d8d8d8"/>
    </clipPath>
  </defs>
  <g id="like" transform="translate(-69 -228)">
    <circle id="Ellipse_3" data-name="Ellipse 3" cx="50" cy="50" r="50" transform="translate(69 228)" fill="#f8f8f8"/>
    <circle id="Ellipse_4" data-name="Ellipse 4" cx="18" cy="18" r="18" transform="translate(101 260)" fill="#eee"/>
    <g id="LIKE-2" data-name="LIKE" transform="translate(95.124 253.809)">
      <g id="Group_17" data-name="Group 17">
        <g id="Group_16" data-name="Group 16">
          <g id="Rectangle_23" data-name="Rectangle 23" transform="translate(-0.124 24.191)" fill="#99c4ff" stroke="#430062" stroke-miterlimit="10" stroke-width="1">
            <rect width="14" height="23" rx="2" stroke="none"/>
            <rect x="0.5" y="0.5" width="13" height="22" rx="1.5" fill="none"/>
          </g>
          <path id="Rectangle_23_Copy" data-name="Rectangle 23 Copy" d="M-.251-.414h12v8a1,1,0,0,1-1,1h-10a1,1,0,0,1-1-1Z" transform="translate(1.127 37.605)" fill="#66a6ff"/>
          <g id="Group_8" data-name="Group 8" transform="translate(13.714)">
            <g id="Path_23-2" data-name="Path 23" fill="#fff" stroke-miterlimit="10">
              <path d="M 26.84449005126953 48.80316543579102 C 26.68899917602539 48.80317306518555 26.55540084838867 48.76873397827148 26.43753051757812 48.73834609985352 C 26.33835029602051 48.71278381347656 26.25270080566406 48.69070434570312 26.16161918640137 48.69070434570312 L 11.16162014007568 48.69070434570312 C 11.15151977539062 48.69070434570312 11.11571979522705 48.69103622436523 11.06348991394043 48.69150543212891 C 10.91531944274902 48.69281387329102 10.64157009124756 48.69524383544922 10.43348026275635 48.69524383544922 C 10.19515991210938 48.69524383544922 10.13570594787598 48.69232559204102 10.09426307678223 48.68629455566406 L 1.106399893760681 47.68764495849609 L 1.090309858322144 47.68585586547852 L 1.07436990737915 47.68303298950195 C 0.3949398994445801 47.56261444091797 -0.3383800983428955 46.95782470703125 -0.3383800983428955 46.19070434570312 L -0.3383800983428955 25.19070434570312 L -0.3383800983428955 24.69070434570312 L 0.1616199165582657 24.69070434570312 L 3.11042046546936 24.69070434570312 C 3.357853174209595 24.62215042114258 3.612423896789551 24.21671676635742 3.697589874267578 24.00449371337891 L 3.705229997634888 23.98545455932617 L 3.714409828186035 23.96709442138672 L 8.714409828186035 13.96709442138672 L 8.750689506530762 13.89452457427979 L 8.808070182800293 13.83715438842773 L 13.68404769897461 8.961176872253418 L 14.66467952728271 0.1354845017194748 L 14.7431697845459 -0.5709155201911926 L 15.38150024414062 -0.2583554983139038 C 15.44445037841797 -0.2275255024433136 16.94059944152832 0.5095245242118835 18.46028900146484 1.641434550285339 C 20.58453941345215 3.223634481430054 21.66161918640137 4.754234313964844 21.66161918640137 6.190704345703125 L 21.66161918640137 10.19070434570312 L 21.66161918640137 10.28699493408203 L 21.6258602142334 10.37640476226807 L 19.62969207763672 15.36682605743408 C 19.37654495239258 16.08922576904297 19.49735641479492 16.87988471984863 19.9617805480957 17.53753471374512 C 20.47168922424316 18.25961494445801 21.29405975341797 18.69070434570312 22.16161918640137 18.69070434570312 L 29.16161918640137 18.69070434570312 C 29.53014945983887 18.69070434570312 29.81768035888672 19.01530456542969 30.25629997253418 19.54492378234863 C 30.32901954650879 19.63273048400879 30.4261589050293 19.75002288818359 30.47069931030273 19.79582786560059 L 33.43896865844727 21.7746753692627 L 33.45824813842773 21.78753471374512 L 33.47624969482422 21.80210494995117 C 33.91704177856445 22.15899467468262 35.08790969848633 23.10701370239258 34.63148880004883 24.36164474487305 L 34.61095809936523 24.4180850982666 L 34.5776481628418 24.46805381774902 L 32.76255035400391 27.19070434570312 L 34.5776481628418 29.91335487365723 L 34.60287857055664 29.95121383666992 L 34.62088012695312 29.99300384521484 C 34.93521881103516 30.72322463989258 34.36096954345703 31.45117378234863 33.89955139160156 32.03608322143555 C 33.79225921630859 32.17208099365234 33.69015121459961 32.30151748657227 33.61509323120117 32.41141891479492 L 32.72947311401367 35.06827926635742 C 33.03860092163086 35.4324836730957 33.56246185302734 36.178466796875 33.65911865234375 37.1407356262207 C 33.78260040283203 38.36991500854492 33.24547958374023 38.86400604248047 32.77159881591797 39.29992294311523 C 32.68328094482422 39.38116455078125 32.59986114501953 39.45790481567383 32.51868057250977 39.54071426391602 L 30.73367691040039 41.32574462890625 L 31.63595962524414 44.0325927734375 L 31.64621925354004 44.0633659362793 L 31.65242004394531 44.09521484375 C 31.8557300567627 45.14022445678711 31.1361198425293 46.09404373168945 30.45809936523438 46.59332275390625 L 30.44869041442871 46.60024261474609 L 30.4389705657959 46.60673522949219 L 27.44725799560547 48.6012077331543 C 27.26114273071289 48.73521423339844 27.05840301513672 48.80315399169922 26.84449005126953 48.80316543579102 Z" stroke="none"/>
              <path d="M 26.8444709777832 48.30316543579102 C 26.94519805908203 48.30316162109375 27.04708671569824 48.27504730224609 27.16161918640137 48.19070434570312 L 30.16161918640137 46.19070434570312 C 30.78387069702148 45.73249435424805 31.30920028686523 44.94923400878906 31.16161918640137 44.19070434570312 L 30.16161918640137 41.19070434570312 L 32.16162109375 39.19070434570312 C 32.69488906860352 38.64669418334961 33.28017044067383 38.37082290649414 33.16162109375 37.19070434570312 C 33.0430793762207 36.01059341430664 32.16162109375 35.19070434570312 32.16162109375 35.19070434570312 L 33.16162109375 32.19070434570312 C 33.51929092407227 31.63167381286621 34.42403030395508 30.80028533935547 34.16162109375 30.19070434570312 L 32.16162109375 27.19070434570312 L 34.16162109375 24.19070434570312 C 34.45341873168945 23.38859367370605 33.82498168945312 22.72780418395996 33.16162109375 22.19070434570312 L 30.16161918640137 20.19070434570312 C 29.98357963562012 20.04654502868652 29.39071083068848 19.19070434570312 29.16161918640137 19.19070434570312 L 22.16161918640137 19.19070434570312 C 20.0894889831543 19.19070434570312 18.46849060058594 17.14346504211426 19.16161918640137 15.19070434570312 L 21.16161918640137 10.19070434570312 L 21.16161918640137 6.190704345703125 C 21.16161918640137 3.128644466400146 15.16162014007568 0.1907045096158981 15.16162014007568 0.1907045096158981 L 14.16162014007568 9.190704345703125 L 9.161620140075684 14.19070434570312 L 4.161620140075684 24.19070434570312 C 4.161620140075684 24.19070434570312 3.802609920501709 25.0853443145752 3.161619901657104 25.19070434570312 L 0.1616199165582657 25.19070434570312 L 0.1616199165582657 46.19070434570312 C 0.1616199165582657 46.67567443847656 0.6840999126434326 47.10607528686523 1.161619901657104 47.19070434570312 L 10.16162014007568 48.19070434570312 C 10.21922969818115 48.20091247558594 11.10311031341553 48.19070434570312 11.16162014007568 48.19070434570312 L 26.16161918640137 48.19070434570312 C 26.44612121582031 48.19070434570312 26.64299964904785 48.30317306518555 26.8444709777832 48.30316543579102 M 26.84452056884766 49.30316543579102 C 26.84448432922363 49.30316543579102 26.84446907043457 49.30316543579102 26.84446907043457 49.30316543579102 C 26.62557792663574 49.30316925048828 26.44476127624512 49.25655364990234 26.31271934509277 49.2225227355957 C 26.2492504119873 49.20615386962891 26.18928909301758 49.19070434570312 26.16161918640137 49.19070434570312 L 11.16162014007568 49.19070434570312 C 11.15060997009277 49.19073486328125 11.11653995513916 49.19105529785156 11.06793975830078 49.19148635864258 C 10.91872978210449 49.19280624389648 10.64303970336914 49.19524383544922 10.43348026275635 49.19524383544922 C 10.1978006362915 49.19524383544922 10.1099328994751 49.19302749633789 10.03207111358643 49.18246078491211 L 0.987109899520874 48.17536544799805 C 0.08977991342544556 48.01632308959961 -0.8383800983428955 47.23049545288086 -0.8383800983428955 46.19070434570312 L -0.8383800983428955 24.19070434570312 L 2.986565113067627 24.19070434570312 C 3.073033332824707 24.11045074462891 3.192877531051636 23.91965675354004 3.233559846878052 23.81828498840332 L 3.248839855194092 23.78019523620605 L 8.339770317077637 13.59834480285645 L 13.2064790725708 8.731625556945801 L 14.32472038269043 -1.3325355052948 L 15.60138988494873 -0.7074055075645447 C 15.66602993011475 -0.675755500793457 17.2025203704834 0.08116450160741806 18.75896072387695 1.240444540977478 C 21.01679992675781 2.922144412994385 22.16161918640137 4.587654590606689 22.16161918640137 6.190704345703125 L 22.16161918640137 10.38328456878662 L 20.09823226928711 15.5417652130127 C 19.90373229980469 16.10702896118164 20.00243377685547 16.72832870483398 20.37019920349121 17.24911499023438 C 20.78656005859375 17.83870506286621 21.45624923706055 18.19070434570312 22.16161918640137 18.19070434570312 L 29.16161918640137 18.19070434570312 C 29.78397941589355 18.19070434570312 30.18131065368652 18.67047500610352 30.64138984680176 19.22600364685059 C 30.69207191467285 19.28720855712891 30.75699996948242 19.36560440063477 30.79922294616699 19.4139232635498 L 33.7548713684082 21.38435363769531 L 33.79087829589844 21.41351509094238 C 34.25804901123047 21.7917652130127 35.6796989440918 22.94282531738281 35.10137176513672 24.53257369995117 L 35.06029891967773 24.64545440673828 L 33.36346817016602 27.19070434570312 L 35.04415130615234 29.71172523498535 L 35.08013153076172 29.7953052520752 C 35.51222991943359 30.7990837097168 34.77798080444336 31.72985458374023 34.29209899902344 32.34575271606445 C 34.20845413208008 32.4517936706543 34.12815475463867 32.55358505249023 34.06624221801758 32.63910675048828 L 33.29020690917969 34.96721649169922 C 33.6350212097168 35.42518997192383 34.0634880065918 36.16368865966797 34.15660858154297 37.09075546264648 C 34.30508041381836 38.56866455078125 33.58596038818359 39.23017501831055 33.11009979248047 39.66790390014648 C 33.02666854858398 39.74465560913086 32.94786834716797 39.81714630126953 32.87574005126953 39.89072418212891 L 32.86872863769531 39.8978157043457 L 31.30574226379395 41.46080017089844 L 32.13082122802734 43.93603515625 L 32.14321136474609 43.99972534179688 C 32.39112091064453 45.27393341064453 31.55010032653809 46.41013336181641 30.75457954406738 46.99594497680664 L 30.7163200378418 47.02275466918945 L 27.73196411132812 49.01232528686523 C 27.46111488342285 49.205322265625 27.16268348693848 49.30315399169922 26.84452056884766 49.30316543579102 L 26.84452056884766 49.30316543579102 Z" stroke="none" fill="#430062"/>
            </g>
            <g id="Group_8-2" data-name="Group 8" clip-path="url(#clip-path)">
              <path id="Combined_Shape-2" data-name="Combined Shape" d="M26.161,6.838h-15c-.059,0-.942.011-1,0l-9-1a1.189,1.189,0,0,1-1-1V0a152.458,152.458,0,0,0,21,1.84A24.542,24.542,0,0,0,30.255.118l.907,2.72a2.179,2.179,0,0,1-1,2l-3,2a.513.513,0,0,1-.317.113C26.643,6.951,26.446,6.838,26.161,6.838Z" transform="translate(0 41.352)" fill="#d8d8d8"/>
            </g>
            <path id="Combined_Shape-3" data-name="Combined Shape" d="M5.4,7.259Zm-5-2C-.2,4.117,1.749,2.168,3.386.8L2.4,3.26A3.084,3.084,0,0,0,5.038,7.238C4.028,7.16,1.211,6.8.4,5.26Z" transform="translate(16.759 11.931)" fill="#d8d8d8"/>
          </g>
        </g>
        <ellipse id="Oval_12" data-name="Oval 12" cx="2" cy="1.5" rx="2" ry="1.5" transform="translate(1.876 42.191)" fill="#fff"/>
      </g>
    </g>
  </g>
</svg>
