<svg
    xmlns="http://www.w3.org/2000/svg"
    viewBox="0 0 33 19"
    id="vector">
    <g id="group">
        <path
            id="path"
            d="M 20.808 18.598 L 0.75 18.598 L 0.75 14.991 C 1.287 14.99 1.801 14.777 2.181 14.398 C 2.56 14.018 2.774 13.504 2.775 12.967 C 2.774 12.43 2.561 11.915 2.181 11.535 C 1.802 11.156 1.287 10.942 0.75 10.941 L 0.75 8.107 C 1.287 8.106 1.802 7.892 2.181 7.513 C 2.56 7.134 2.774 6.619 2.775 6.082 C 2.774 5.545 2.56 5.031 2.181 4.651 C 1.801 4.272 1.287 4.059 0.75 4.058 L 0.75 0.75 L 20.808 0.75 C 20.808 1.037 20.864 1.32 20.974 1.585 C 21.084 1.85 21.245 2.09 21.448 2.292 C 21.65 2.495 21.89 2.657 22.154 2.766 C 22.419 2.876 22.703 2.933 22.989 2.932 C 23.567 2.931 24.122 2.701 24.531 2.292 C 24.939 1.883 25.169 1.328 25.17 0.75 L 32.37 0.75 L 32.37 18.596 L 25.17 18.596 C 25.17 18.018 24.94 17.463 24.531 17.054 C 24.122 16.645 23.567 16.415 22.989 16.415 C 22.411 16.415 21.856 16.645 21.447 17.054 C 21.038 17.463 20.808 18.018 20.808 18.596 Z"
            fill="none"
            stroke="#daa35a"
            stroke-width="1"/>
        <path
            id="path_8"
            d="M 11.633 8.75 L 11.633 18.75"
            fill="#daa35a"
            stroke="#daa35a"
            stroke-width="1"/>
    </g>
</svg>
