<svg xmlns="http://www.w3.org/2000/svg" width="31" height="31" viewBox="0 0 31 31">
  <g id="Notification_" data-name="Notification " transform="translate(-14 -263.2)">
    <circle id="bg" cx="15.5" cy="15.5" r="15.5" transform="translate(14 263.2)" fill="#2573d5"/>
    <g id="notification" transform="translate(-17.957 269.2)">
      <g id="Group_1208" data-name="Group 1208" transform="translate(38.957)">
        <g id="Group_1207" data-name="Group 1207">
          <path id="Path_22346" data-name="Path 22346" d="M53.957,13V9c0-3.223-2.007-5.246-5-6,.125-.252,0-.7,0-1a2,2,0,0,0-4,0c0,.3-.125.748,0,1-2.993.754-5,2.777-5,6v4c-.73.259-1,1.182-1,2a2.092,2.092,0,0,0,2,2h3c.291,1.43,1.485,2,3,2s2.709-.57,3-2h3a2.092,2.092,0,0,0,2-2C54.957,14.182,54.687,13.259,53.957,13Zm-7-12a1.455,1.455,0,0,1,1,1,1.455,1.455,0,0,1-1,1c-.346,0,0-.654,0-1S46.611,1,46.957,1Zm0,17c-.818,0-1.741-.27-2-1h4C48.7,17.73,47.775,18,46.957,18Zm6-3h-12c-.346,0-1,.346-1,0a1.455,1.455,0,0,1,1-1h1c.346,0,1,.346,1,0a1.453,1.453,0,0,0-1-1h0V9a4.611,4.611,0,0,1,5-5c3.113,0,6,1.887,6,5v4h-1c-.346,0,0,.654,0,1s-.346,0,0,0h1a1.455,1.455,0,0,1,1,1C53.957,15.346,53.3,15,52.957,15Z" transform="translate(-38.957)" fill="#fff"/>
        </g>
      </g>
      <g id="Group_1210" data-name="Group 1210" transform="translate(42.72 5.018)">
        <g id="Group_1209" data-name="Group 1209">
          <path id="Path_22347" data-name="Path 22347" d="M143.367,133.547a3.757,3.757,0,0,0-4,4c0,.346-.346,1,0,1a1.453,1.453,0,0,0,1-1,2.912,2.912,0,0,1,3-3c.346,0,1,.346,1,0A1.453,1.453,0,0,0,143.367,133.547Z" transform="translate(-139.13 -133.565)" fill="#fff"/>
        </g>
      </g>
    </g>
  </g>
</svg>
