<svg xmlns="http://www.w3.org/2000/svg" width="33.124" height="19.348" viewBox="0 0 33.124 19.348">
  <path id="Subtraction_1" data-name="Subtraction 1" d="M20.058,17.848H0V14.241a2.027,2.027,0,0,0,2.025-2.024A2.028,2.028,0,0,0,0,10.191V7.357A2.028,2.028,0,0,0,2.025,5.332,2.027,2.027,0,0,0,0,3.308V0H20.058a2.169,2.169,0,0,0,.64,1.542,2.165,2.165,0,0,0,1.541.64A2.184,2.184,0,0,0,24.42,0h7.2V17.846h-7.2a2.181,2.181,0,1,0-4.362,0Z" transform="translate(0.75 0.75)" fill="rgba(0,0,0,0)" stroke="#d9a259" stroke-linecap="round" stroke-linejoin="round" stroke-width="1.5"/>
</svg>
