<svg
    xmlns="http://www.w3.org/2000/svg"
    viewBox="0 0 113 37"
    id="vector">
    <g id="group_3">
        <path
            id="path_1"
            d="M 103.25 1.242 C 103.25 2.798 101.806 3.242 100.25 3.242 C 98.694 3.242 97.25 2.798 97.25 1.242 L 6.25 1.242 L 6.25 2.242 C 6.432 2.217 6.617 2.248 6.78 2.333 C 6.942 2.417 7.075 2.55 7.159 2.712 C 7.244 2.875 7.275 3.06 7.25 3.242 C 7.25 3.906 6.914 5.242 6.25 5.242 L 6.25 6.242 C 6.432 6.217 6.617 6.248 6.78 6.333 C 6.942 6.417 7.075 6.55 7.159 6.712 C 7.244 6.875 7.275 7.06 7.25 7.242 C 7.25 7.906 6.914 9.242 6.25 9.242 L 6.25 10.242 C 6.432 10.217 6.617 10.248 6.78 10.333 C 6.942 10.417 7.075 10.55 7.159 10.712 C 7.244 10.875 7.275 11.06 7.25 11.242 C 7.275 11.424 7.244 11.609 7.159 11.772 C 7.075 11.934 6.942 12.067 6.78 12.151 C 6.617 12.236 6.432 12.267 6.25 12.242 L 6.25 14.242 C 6.432 14.217 6.617 14.248 6.78 14.333 C 6.942 14.417 7.075 14.55 7.159 14.712 C 7.244 14.875 7.275 15.06 7.25 15.242 C 7.275 15.424 7.244 15.609 7.159 15.772 C 7.075 15.934 6.942 16.067 6.78 16.151 C 6.617 16.236 6.432 16.267 6.25 16.242 L 6.25 18.242 C 6.432 18.217 6.617 18.248 6.78 18.333 C 6.942 18.417 7.075 18.55 7.159 18.712 C 7.244 18.875 7.275 19.06 7.25 19.242 C 7.275 19.424 7.244 19.609 7.159 19.772 C 7.075 19.934 6.942 20.067 6.78 20.151 C 6.617 20.236 6.432 20.267 6.25 20.242 L 6.25 22.242 C 6.432 22.217 6.617 22.248 6.78 22.333 C 6.942 22.417 7.075 22.55 7.159 22.712 C 7.244 22.875 7.275 23.06 7.25 23.242 C 7.275 23.424 7.244 23.609 7.159 23.772 C 7.075 23.934 6.942 24.067 6.78 24.151 C 6.617 24.236 6.432 24.267 6.25 24.242 L 6.25 26.242 L 97.25 26.242 C 97.284 25.458 97.612 24.714 98.167 24.159 C 98.722 23.604 99.466 23.276 100.25 23.242 C 101.035 23.276 101.778 23.603 102.334 24.158 C 102.889 24.714 103.216 25.458 103.25 26.242 L 107.25 26.242 L 107.25 1.242 Z"
            fill="#ffffff"
            stroke="#f2a902"
            stroke-width="0.5"
            stroke-miterlimit="10"/>
    </g>
</svg>
