<svg xmlns="http://www.w3.org/2000/svg" width="35" height="35" viewBox="0 0 35 35">
  <g id="Twitter" transform="translate(-70 -549)">
    <circle id="bg" cx="17.5" cy="17.5" r="17.5" transform="translate(70 549)" fill="#5ea9dd"/>
    <path id="twitter-2" data-name="twitter" d="M17,6.25a7.9,7.9,0,0,0,2-2h0c-.7.308-1.218-.1-2,0,.8-.48.711-1.091,1-2a5.589,5.589,0,0,1-2,1,4.1,4.1,0,0,0-3-1,4.088,4.088,0,0,0-4,4,5.227,5.227,0,0,0,0,1,10.929,10.929,0,0,1-8-4c-.334.581,0,1.285,0,2a3.776,3.776,0,0,0,2,3c-.624-.012-1.482-.715-2-1H1a4.017,4.017,0,0,0,3,4,3.854,3.854,0,0,1-1,0,6.412,6.412,0,0,1-1,0,4.709,4.709,0,0,0,4,3,8.676,8.676,0,0,1-5,2,8.631,8.631,0,0,1-1,0c1.72,1.108,3.8,1,6,1C12.849,17.25,17.281,12.081,17,6.25Z" transform="translate(78 556.75)" fill="#fff"/>
  </g>
</svg>
